<svg width="184" height="29" fill="none" xmlns="http://www.w3.org/2000/svg"><path fill-rule="evenodd" clip-rule="evenodd" d="M25.672 3.053H3.088V25.38h22.584V3.053zM3.088 0H0v28.433h28.76V0H3.088zM20.9 8.052l-.513 2.054c-.214.86-1 1.462-1.9 1.462H10.35l.514-2.058a1.943 1.943 0 011.896-1.458h8.14zm-11.255 6.52a1.946 1.946 0 011.89-1.48h5.69l-.512 2.081a1.949 1.949 0 01-1.893 1.484h-2.01l-.673 2.8a1.96 1.96 0 01-1.9 1.487h-2.14l1.548-6.371z" fill="#fff"/><path d="M41.429 17.577v6.608h-4.172V5.555h13.027v3.863h-8.855v4.46h8.155v3.699h-8.155zm17.014-7.615c1.059 0 2.037.19 2.934.57a7.4 7.4 0 012.368 1.551 7.081 7.081 0 011.561 2.312 7.23 7.23 0 01.565 2.855 7.237 7.237 0 01-.565 2.856 7.16 7.16 0 01-1.56 2.284 7.381 7.381 0 01-2.37 1.55c-.896.381-1.874.572-2.933.572a7.964 7.964 0 01-2.96-.544 7.459 7.459 0 01-2.342-1.55 7.081 7.081 0 01-1.561-2.312 7.551 7.551 0 01-.538-2.856 7.23 7.23 0 01.565-2.855 7.302 7.302 0 011.534-2.312 7.46 7.46 0 012.341-1.55 7.63 7.63 0 012.961-.571zm0 3.426c-.52 0-1.014.1-1.48.3a3.489 3.489 0 00-1.184.788 4.063 4.063 0 00-.781 1.224c-.18.471-.27.988-.27 1.55s.09 1.079.27 1.55c.18.472.43.88.754 1.224.322.345.708.617 1.157.816.449.2.933.3 1.453.3s1.014-.1 1.48-.3c.467-.2.87-.471 1.212-.816.34-.344.61-.752.807-1.224.198-.471.296-.988.296-1.55s-.098-1.079-.296-1.55c-.18-.471-.44-.88-.78-1.224a3.174 3.174 0 00-1.185-.788c-.448-.2-.933-.3-1.453-.3zm8.637-4.351V5.556h3.741v3.481h-3.74zm0 15.148V10.234h3.741v13.951h-3.74zm5.257 0V5.555h3.768v18.63h-3.768zm5.283 0v-3.943h3.875v3.943H77.62zm9.801-11.803v11.803h-4.01V5.555h4.548l7.429 11.831V5.556h4.01v18.63H94.85l-7.43-11.805zm27.419 8.812a7.455 7.455 0 01-2.638 2.447c-1.059.58-2.36.87-3.903.87-1.112 0-2.117-.18-3.014-.543a7.46 7.46 0 01-2.288-1.523 6.813 6.813 0 01-1.453-2.312 7.977 7.977 0 01-.511-2.883c0-.997.17-1.94.511-2.828a6.944 6.944 0 011.507-2.312 6.936 6.936 0 012.315-1.577c.897-.38 1.884-.571 2.96-.571 1.095 0 2.073.181 2.934.544A6.257 6.257 0 01113.44 12a6.456 6.456 0 011.4 2.258c.323.852.484 1.785.484 2.8 0 .273-.009.554-.027.844-.018.29-.027.453-.027.49h-10.55c.197.888.61 1.595 1.238 2.12.646.526 1.453.79 2.422.79.843 0 1.561-.164 2.153-.49a4.543 4.543 0 001.507-1.36l2.8 1.74zm-6.541-8.132c-.879 0-1.614.227-2.207.68-.574.435-.986 1.051-1.238 1.85h6.702c-.197-.853-.601-1.487-1.211-1.904a3.543 3.543 0 00-2.046-.626zm16.498-2.828v3.372h-3.391v5.602c0 .635.143 1.088.43 1.36.305.254.772.38 1.4.38h1.561v3.237h-1.83c-1.848 0-3.194-.399-4.037-1.196-.844-.816-1.265-2.013-1.265-3.59v-5.793h-1.992v-3.372h1.992v-3.59h3.741v3.59h3.391zm11.057 5.983l-1.884 7.968h-4.737l-3.526-13.951h3.768l2.261 9.6 2.341-9.6h3.768l2.315 9.654 2.288-9.654h3.633l-3.553 13.951h-4.79l-1.884-7.968zm17.603-6.255c1.059 0 2.037.19 2.934.57a7.404 7.404 0 012.369 1.551 7.098 7.098 0 011.561 2.312 7.25 7.25 0 01.565 2.855 7.25 7.25 0 01-.565 2.856 7.177 7.177 0 01-1.561 2.284 7.385 7.385 0 01-2.369 1.55c-.897.381-1.875.572-2.934.572a7.963 7.963 0 01-2.96-.544 7.463 7.463 0 01-2.342-1.55 7.083 7.083 0 01-1.561-2.312 7.549 7.549 0 01-.538-2.856 7.23 7.23 0 01.565-2.855 7.303 7.303 0 011.534-2.312 7.465 7.465 0 012.342-1.55 7.63 7.63 0 012.96-.571zm0 3.426c-.52 0-1.013.1-1.48.3a3.495 3.495 0 00-1.184.788 4.077 4.077 0 00-.781 1.224 4.333 4.333 0 00-.269 1.55c0 .562.09 1.079.269 1.55a3.54 3.54 0 003.365 2.339c.52 0 1.013-.1 1.48-.299.466-.2.87-.471 1.211-.816.341-.344.61-.752.808-1.224.197-.471.296-.988.296-1.55a3.98 3.98 0 00-.296-1.55c-.18-.471-.44-.88-.781-1.224a3.177 3.177 0 00-1.184-.788 3.53 3.53 0 00-1.454-.3zm8.638 10.797V10.234h3.741v1.903a5.45 5.45 0 011.695-1.523c.682-.38 1.454-.57 2.315-.57v3.807c-1.382 0-2.396.362-3.041 1.088-.628.707-.942 1.668-.942 2.882v6.364h-3.768zm17.437-13.951h4.252l-5.302 6.935L184 24.185h-4.656l-4.387-5.738v5.738h-3.768V5.555h3.768V16.49l4.575-6.255z" fill="#fff"/></svg>