<svg width="18" height="16" fill="none" xmlns="http://www.w3.org/2000/svg"><path d="M18 2.465a3.81 3.81 0 01-1.71 1.725v.585A10.665 10.665 0 010 13.85c.26.023.52.023.78 0a7.62 7.62 0 004.755-1.68A4.08 4.08 0 011.95 9.62c.247.048.498.073.75.075a4.97 4.97 0 00.825-.09 4.59 4.59 0 01-1.845-1.2 3.99 3.99 0 01-1.095-2.55c.461.257.973.41 1.5.45.094.015.19.015.285 0l-.21-.165A4.125 4.125 0 01.84 4.205a3.51 3.51 0 01-.18-1.11 3.81 3.81 0 01.495-1.845c.1.156.216.302.345.435.225.255.465.51.72.75.73.7 1.565 1.283 2.475 1.725.357.188.728.348 1.11.48a9.734 9.734 0 002.805.54h.27a3.765 3.765 0 010-1.935 2.7 2.7 0 01.27-.675c.12-.2.255-.39.405-.57l.105-.135a3.9 3.9 0 011.23-.96c.23-.11.472-.195.72-.255L12 .59a3.33 3.33 0 01.555 0 3.75 3.75 0 012.76 1.215 3.3 3.3 0 00.555-.09 4.31 4.31 0 001.29-.48c.161-.082.312-.183.45-.3A3.66 3.66 0 0116.245 2.9 4.935 4.935 0 0018 2.465z" fill="#F5F5F5"/></svg>